<?xml version="1.0" encoding="UTF-8" standalone="no"?>
<!-- Generator: Adobe Illustrator 18.0.0, SVG Export Plug-In . SVG Version: 6.00 Build 0)  -->

<svg
   xmlns:dc="http://purl.org/dc/elements/1.1/"
   xmlns:cc="http://creativecommons.org/ns#"
   xmlns:rdf="http://www.w3.org/1999/02/22-rdf-syntax-ns#"
   xmlns:svg="http://www.w3.org/2000/svg"
   xmlns="http://www.w3.org/2000/svg"
   xmlns:sodipodi="http://sodipodi.sourceforge.net/DTD/sodipodi-0.dtd"
   xmlns:inkscape="http://www.inkscape.org/namespaces/inkscape"
   version="1.1"
   id="Capa_1"
   x="0px"
   y="0px"
   viewBox="0 0 64.000002 64.000002"
   xml:space="preserve"
   inkscape:version="0.91 r13725"
   sodipodi:docname="logo.svg"
   inkscape:export-filename="C:\Projects\GitHub\ArcObjectConverters\doc\logo.png"
   inkscape:export-xdpi="90"
   inkscape:export-ydpi="90"
   width="64"
   height="64"><metadata
     id="metadata47"><rdf:RDF><cc:Work
         rdf:about=""><dc:format>image/svg+xml</dc:format><dc:type
           rdf:resource="http://purl.org/dc/dcmitype/StillImage" /><dc:title></dc:title></cc:Work></rdf:RDF></metadata><defs
     id="defs45" /><sodipodi:namedview
     pagecolor="#ffffff"
     bordercolor="#666666"
     borderopacity="1"
     objecttolerance="10"
     gridtolerance="10"
     guidetolerance="10"
     inkscape:pageopacity="0"
     inkscape:pageshadow="2"
     inkscape:window-width="1680"
     inkscape:window-height="987"
     id="namedview43"
     showgrid="false"
     inkscape:zoom="7.8863172"
     inkscape:cx="26.068902"
     inkscape:cy="37.551221"
     inkscape:window-x="-8"
     inkscape:window-y="-8"
     inkscape:window-maximized="1"
     inkscape:current-layer="Capa_1"
     showguides="false" /><g
     id="g13"
     transform="translate(0,-175.40199)" /><g
     id="g15"
     transform="translate(0,-175.40199)" /><g
     id="g17"
     transform="translate(0,-175.40199)" /><g
     id="g19"
     transform="translate(0,-175.40199)" /><g
     id="g21"
     transform="translate(0,-175.40199)" /><g
     id="g23"
     transform="translate(0,-175.40199)" /><g
     id="g25"
     transform="translate(0,-175.40199)" /><g
     id="g27"
     transform="translate(0,-175.40199)" /><g
     id="g29"
     transform="translate(0,-175.40199)" /><g
     id="g31"
     transform="translate(0,-175.40199)" /><g
     id="g33"
     transform="translate(0,-175.40199)" /><g
     id="g35"
     transform="translate(0,-175.40199)" /><g
     id="g37"
     transform="translate(0,-175.40199)" /><g
     id="g39"
     transform="translate(0,-175.40199)" /><g
     id="g41"
     transform="translate(0,-175.40199)" /><g
     id="g5256"><path
       d="m 48.697946,52.543862 0,3.781861 1.199402,0 q 4.816955,0 6.461295,-1.943461 1.625,-1.943453 1.625,-7.747565 l 0,-6.27685 q 0,-3.965704 1.04464,-5.488954 1.044639,-1.52325 3.79166,-1.52325 l 1.180057,0 0,-3.755606 -1.180057,0 q -2.766361,0 -3.79166,-1.496987 -1.04464,-1.52325 -1.04464,-5.436434 l 0,-6.303109 q 0,-5.804113 -1.625,-7.7213086 -1.64434,-1.9434587 -6.461295,-1.9434587 l -1.199402,0 0,3.7556033 1.315475,0 q 2.72767,0 3.559515,1.15557 0.831846,1.155569 0.831846,4.858646 l 0,6.513212 q 0,4.123285 0.889876,5.987957 0.870537,1.864671 2.998506,2.521243 -2.147315,0.709099 -3.017851,2.57377 -0.870531,1.864664 -0.870531,5.961692 l 0,6.513211 q 0,3.703072 -0.831846,4.858645 -0.831845,1.155573 -3.559515,1.155573 l -1.315475,0 z"
       style="font-style:normal;font-weight:normal;font-size:70px;line-height:125%;font-family:sans-serif;letter-spacing:0px;word-spacing:0px;fill:#3c3c3c;fill-opacity:1;stroke:none;stroke-width:1px;stroke-linecap:butt;stroke-linejoin:miter;stroke-opacity:1"
       id="path4198"
       inkscape:connector-curvature="0" /><path
       d="m 15.302055,52.543862 -1.354164,0 q -2.708328,0 -3.520827,-1.12931 -0.8318437,-1.12931 -0.8318437,-4.884908 l 0,-6.513211 q 0,-4.097028 -0.8705336,-5.961692 -0.8705342,-1.864671 -3.0178521,-2.57377 2.1473179,-0.656572 3.0178521,-2.521243 0.8705336,-1.864672 0.8705336,-5.987957 l 0,-6.513212 q 0,-3.72934 0.8318437,-4.858646 0.812499,-1.15557 3.520827,-1.15557 l 1.354164,0 0,-3.7556033 -1.218747,0 q -4.8169558,0 -6.4226076,1.9434587 -1.6249972,1.9171956 -1.6249972,7.7213086 l 0,6.303109 q 0,3.913184 -1.0446408,5.436434 -1.0446409,1.496987 -3.7916599,1.496987 l -1.19940280617688,0 0,3.755606 1.19940280617688,0 q 2.747019,0 3.7916599,1.52325 1.0446408,1.52325 1.0446408,5.488954 l 0,6.27685 q 0,5.804112 1.6249972,7.747565 1.6056518,1.943461 6.4226076,1.943461 l 1.218747,0 0,-3.781861 z"
       style="font-style:normal;font-weight:normal;font-size:70px;line-height:125%;font-family:sans-serif;letter-spacing:0px;word-spacing:0px;fill:#3c3c3c;fill-opacity:1;stroke:none;stroke-width:1px;stroke-linecap:butt;stroke-linejoin:miter;stroke-opacity:1"
       id="path4200"
       inkscape:connector-curvature="0" /><path
       inkscape:connector-curvature="0"
       id="path4734"
       d="m 31.698016,51.01864 c 5.090305,0.155065 10.481029,-1.37002 15.019089,-7.069286 2.223555,-2.788187 4.263862,-7.807856 3.753383,-13.248753 C 49.802113,24.281752 46.934982,20.399166 44.204175,17.776877 38.373202,12.541908 31.605914,11.554375 25.146589,13.93272 c -3.604976,1.526984 -7.44441,4.099804 -10.031337,9.966102 -1.661092,3.636725 -1.934108,9.264563 -0.651571,13.124983 2.076242,6.508648 5.83085,9.709847 9.428897,11.78197 2.526026,1.377444 5.155948,2.065185 7.805438,2.212865 z m -1.075351,-3.828671 c -3.43447,-0.505092 -6.898113,-2.008878 -9.787142,-5.622552 0.129643,-1.973879 1.866966,-3.408159 1.020817,-5.615323 0.866114,-1.815849 1.383966,-3.097992 2.647559,-2.176743 1.440115,0.660826 3.113269,-0.320494 4.160612,-2.5647 -0.02181,-1.884273 0.938918,-3.509423 -0.455958,-3.78296 -1.669521,-0.363161 -0.445464,-4.276921 -1.990762,-4.701063 -0.870696,-0.218234 -0.538585,-0.736918 -0.121701,-1.04549 -0.474931,-1.498209 -2.054724,0.559108 -0.791171,-1.072629 -0.505157,-1.309664 -1.417689,1.80164 -0.803606,-0.842654 -1.192897,-1.877455 1.377632,-1.716811 2.115383,-2.386059 3.074621,-1.170449 6.210887,-1.223898 9.239804,-0.325883 -1.362171,-0.327136 -2.72502,-0.304068 -4.090069,0.455439 -0.513633,0.914236 -2.000744,0.278014 -0.861046,1.959911 0.242276,1.228093 1.643927,1.397159 0.257899,1.8225 0.488293,1.893838 -1.539836,0.741921 -0.215396,1.50783 -0.381615,3.37085 2.070246,1.683041 2.919397,1.856276 0.96189,0.902163 2.23221,1.018371 2.941422,2.862466 0.983468,0.119089 0.970432,1.51936 0.67603,3.106198 0.506331,-0.187282 2.826409,-1.161432 1.34073,-0.19239 -0.05227,2.049517 -1.177119,-0.859734 -1.899013,0.339202 -0.972739,-0.566577 -2.363215,0.163401 -3.532107,1.147848 -1.329848,-0.577604 -1.89147,3.110001 -3.324583,1.690483 -0.685659,0.22258 -1.760582,1.008135 -2.222923,1.353032 0.2524,1.817248 0.993798,2.993287 1.106764,4.780477 0.836427,0.774744 1.333595,0.914717 1.575564,2.262885 0.661575,1.185504 2.874981,3.401367 1.013636,4.494813 0.595732,1.538263 -0.577807,0.452337 -0.92014,0.689086 z m 5.265095,-0.300246 c 0.864214,-0.837535 0.71608,-2.673262 1.32312,-3.610492 0.183756,-1.684129 0.148788,-4.767177 1.649943,-3.979064 0.323848,-2.023186 2.127446,-1.73866 1.507089,-4.236189 0.109368,-2.519197 2.252696,-1.677981 3.009398,-2.332854 1.200211,0.230957 2.80621,-2.394874 3.517089,-1.821197 0.438681,4.715305 -1.469401,8.996827 -3.431762,11.207127 -2.330174,2.754493 -4.97208,4.127817 -7.574877,4.772669 z"
       style="fill:#3c3c3c;fill-opacity:1;stroke:#00004e;stroke-width:0.00793406;stroke-miterlimit:4;stroke-dasharray:none;stroke-opacity:1" /></g></svg>